<svg xmlns="http://www.w3.org/2000/svg" width="512" height="512"><path d="M482 256c0-124.07-101.93-226-226-226-4.836 0-10.625.16-15.387.453C214.645 10.766 182.695 0 150 0 67.297 0 0 68.297 0 151c0 32.695 10.766 64.645 30.453 90.613A234.03 234.03 0 0 0 30 256c0 124.07 101.93 226 226 226 4.836 0 9.625-.16 14.387-.453C296.355 501.234 328.305 512 361 512c82.703 0 151-67.297 151-150 0-32.695-10.766-65.645-30.453-91.613.293-4.762.453-9.551.453-14.387zM256 407c-29.926 0-59.445-8.043-81.29-22.617-19.132-12.766-35.98-30.215-26.015-50.945 10.32-21.141 39.11-20.301 50.23-6.61 7.97 9.8 31.41 19.735 58.903 19.735C280.11 346.563 316 334.842 316 317c0-18.008-35.777-31-60-31-74.215 0-121-44.965-121-90 0-43.734 42.387-88.207 120.926-88.234 29.75-.012 59.515 6.933 80.347 20.851 19.145 12.75 35.997 30.215 26.032 50.946-9.684 19.84-37.723 22.039-50.246 6.578-7.954-9.77-30.395-19.703-57.891-19.703C231.891 166.438 195 178.155 195 196c0 18.008 36.777 30 61 30 74.215 0 120 45.965 120 91 0 45.246-45.992 90-120 90zm0 0" data-original="#000000" class="active-path" data-old_color="#FCF7F7" fill="#FDF9F9"/></svg>